HIERARCHY
ROOT Hips
{
	OFFSET 0.00000 0.00000 0.00000
	CHANNELS 6 Xposition Yposition Zposition Zrotation Yrotation Xrotation 
	JOINT LHipJoint
	{
		OFFSET 0 0 0
		CHANNELS 3 Zrotation Yrotation Xrotation
		JOINT LeftHip
		{
			OFFSET 1.28858 -1.83292 1.03970
			CHANNELS 3 Zrotation Yrotation Xrotation
			JOINT LeftKnee
			{
				OFFSET 2.47846 -6.80952 0.00000
				CHANNELS 3 Zrotation Yrotation Xrotation
				JOINT LeftAnkle
				{
					OFFSET 2.75274 -7.56311 0.00000
					CHANNELS 3 Zrotation Yrotation Xrotation
					JOINT LeftToe
					{
						OFFSET 0.12848 -0.35301 1.68223
						CHANNELS 3 Zrotation Yrotation Xrotation
						End Site
						{
							OFFSET 0.00000 -0.00000 0.87311
						}
					}
				}
			}
		}
	}
	JOINT RHipJoint
	{
		OFFSET 0 0 0
		CHANNELS 3 Zrotation Yrotation Xrotation
		JOINT RightHip
		{
			OFFSET -1.31183 -1.83292 1.03970
			CHANNELS 3 Zrotation Yrotation Xrotation
			JOINT RightKnee
			{
				OFFSET -2.44740 -6.72417 0.00000
				CHANNELS 3 Zrotation Yrotation Xrotation
				JOINT RightAnkle
				{
					OFFSET -2.67343 -7.34519 0.00000
					CHANNELS 3 Zrotation Yrotation Xrotation
					JOINT RightToe
					{
						OFFSET -0.16914 -0.46471 1.77626
						CHANNELS 3 Zrotation Yrotation Xrotation
						End Site
						{
							OFFSET -0.00000 -0.00000 0.92777
						}
					}
				}
			}
		}
	}
	JOINT lowerback
	{
		OFFSET 0 0 0
		CHANNELS 3 Zrotation Yrotation Xrotation
		JOINT Chest
		{
			OFFSET 0.01249 2.14252 0.03842
			CHANNELS 3 Zrotation Yrotation Xrotation
			JOINT Chest2
			{
				OFFSET -0.02957 2.14199 -0.03751
				CHANNELS 3 Zrotation Yrotation Xrotation
				JOINT lowerneck
				{
					OFFSET 0 0 0
					CHANNELS 3 Zrotation Yrotation Xrotation
					JOINT Neck
					{
						OFFSET -0.01678 1.65709 -0.05476
						CHANNELS 3 Zrotation Yrotation Xrotation
						JOINT Head
						{
							OFFSET 0.07912 1.58331 -0.11843
							CHANNELS 3 Zrotation Yrotation Xrotation
							End Site
							{
								OFFSET 0.03298 1.73940 -0.04271
							}
						}
					}
				}
				JOINT LeftCollar
				{
					OFFSET 0 0 0
					CHANNELS 3 Zrotation Yrotation Xrotation
					JOINT LeftShoulder
					{
						OFFSET 3.39556 1.16496 0.08673
CHANNELS 3 Zrotation Xrotation Yrotation
						JOINT LeftElbow
						{
OFFSET 0 -5.239100 -0.000000
CHANNELS 3 Zrotation Xrotation Yrotation
							JOINT LeftWrist
							{
OFFSET 0 -3.314670 0.000000
CHANNELS 3 Zrotation Xrotation Yrotation
								JOINT lhand
								{
									OFFSET 0 0 0
CHANNELS 3 Zrotation Xrotation Yrotation
									JOINT LFingers
									{
OFFSET 0 -0.965900 0.000000
CHANNELS 3 Zrotation Xrotation Yrotation
										End Site
										{
OFFSET 0 -0.778730 0.000000
										}
									}
								}
								JOINT LThumb
								{
OFFSET 0 0.000000 0.000000
CHANNELS 3 Zrotation Xrotation Yrotation
									End Site
									{
OFFSET 0 -0.790620 0.790620
									}
								}
							}
						}
					}
				}
				JOINT RightCollar
				{
					OFFSET 0 0 0
					CHANNELS 3 Zrotation Yrotation Xrotation
					JOINT RightShoulder
					{
						OFFSET -3.27193 1.31331 0.33940
CHANNELS 3 Zrotation Xrotation Yrotation
						JOINT RightElbow
						{
OFFSET 0 -5.302520 0.000000
CHANNELS 3 Zrotation Xrotation Yrotation
							JOINT RightWrist
							{
OFFSET 0 -3.678750 0.000000
CHANNELS 3 Zrotation Xrotation Yrotation
								JOINT rhand
								{
									OFFSET 0 0 0
CHANNELS 3 Zrotation Xrotation Yrotation
									JOINT RFingers
									{
OFFSET 0 -0.594810 0.000000
CHANNELS 3 Zrotation Xrotation Yrotation
										End Site
										{
OFFSET 0 -0.479550 0.000000
										}
									}
								}
								JOINT RThumb
								{
OFFSET 0 0.000000 0.000000
CHANNELS 3 Zrotation Xrotation Yrotation
									End Site
									{
OFFSET 0 -0.486870 0.486870
									}
								}
							}
						}
					}
				}
			}
		}
	}
}
MOTION
Frames: 4
Frame Time: 0.008333333333333333
10.381400 20.327800 -15.944900 -4.238100 -6.784300 4.697300 0.000000 0.000000 0.000000 -11.191000 -10.537000 -15.984700 5.241200 13.650400 41.854500 2.026700 -17.739200 -26.704700 0.114400 2.180900 6.006000 0.000000 0.000000 0.000000 22.251200 12.043500 -9.204200 -2.525900 -9.884900 28.604900 -2.475900 2.601300 -29.117200 -0.855400 -5.898200 16.489400 3.269200 -1.035200 -7.306600 0.403300 -1.721100 1.904600 -1.627500 -0.736200 6.009700 -7.673800 -7.431400 -0.224300 12.148900 -10.464300 4.778600 4.587600 -5.126600 2.499000 0.000000 0.000000 0.000000 4.642900 -2.095100 -5.703900 16.719900 -26.487000 3.961600 28.566300 -156.427100 -10.257900 0.000000 0.000000 0.000000 -7.125000 0.000000 0.000000 1.373800 41.619000 0.114600 0.000000 0.000000 0.000000 -5.561300 6.765200 13.700600 -17.560000 -27.590000 -4.343500 13.607200 -15.727900 46.306000 0.000000 0.000000 0.000000 7.125000 0.000000 -0.000000 66.993500 64.198200 -38.820500
10.376070 20.334845 -15.961536 -4.110468 -6.467184 4.818997 0.000000 0.000000 0.000000 -11.187568 -10.322670 -16.370196 5.243646 13.653042 41.865070 1.948948 -17.651717 -26.239708 0.068212 1.685358 4.636950 0.000000 0.000000 0.000000 22.177959 12.230265 -9.291407 -2.516071 -9.867147 28.547527 -2.502832 2.161758 -29.384908 -0.821853 -5.784482 16.160326 3.022051 -1.151029 -7.276453 0.386573 -1.848347 1.840214 -1.519984 -0.809766 5.924433 -7.631112 -7.397908 0.033807 12.145692 -10.414114 4.582850 4.596342 -5.113709 2.391078 0.000000 0.000000 0.000000 4.717166 -2.131161 -5.679796 16.719243 -26.486188 3.961298 28.807759 -156.556624 -9.819360 0.000000 0.000000 0.000000 -7.125000 0.000000 0.000000 1.616266 41.147835 0.153617 0.000000 0.000000 0.000000 -5.487894 7.031893 15.338481 -17.418359 -27.405943 -4.278123 10.802926 -11.761087 46.562410 0.000000 0.000000 0.000000 7.125000 0.000000 0.000000 65.295286 65.162833 -38.734567
10.372333 20.340364 -15.978199 -4.010193 -6.120500 4.916710 0.000000 0.000000 0.000000 -11.168935 -10.270108 -16.664606 5.237107 13.645998 41.837304 1.880443 -17.743020 -25.868602 0.057667 1.549258 4.261481 0.000000 0.000000 0.000000 22.114167 12.337923 -9.388834 -2.512550 -9.860710 28.526710 -2.531864 1.864017 -29.634233 -0.829824 -5.811487 16.238424 2.796462 -1.277859 -7.159638 0.396859 -1.990019 1.731726 -1.394674 -0.891923 5.744337 -7.572591 -7.363278 0.320960 12.058522 -10.368360 4.494615 4.576620 -5.102990 2.305196 0.000000 0.000000 0.000000 4.723928 -1.993321 -5.728232 16.772978 -26.557531 3.985284 28.813977 -156.632777 -9.792411 0.000000 0.000000 0.000000 -7.125000 0.000000 0.000000 1.623280 41.118026 0.155458 0.000000 0.000000 0.000000 -5.440266 7.359294 16.882781 -17.292194 -27.241416 -4.220256 7.804450 -7.678520 47.267273 0.000000 0.000000 0.000000 7.125000 0.000000 0.000000 64.327694 66.428368 -39.594806
10.362410 20.350143 -16.007951 -3.927746 -5.394898 5.098179 0.000000 0.000000 0.000000 -10.989928 -10.176010 -17.246722 5.231440 13.639825 41.813321 1.703335 -18.110314 -24.934324 0.055873 1.525486 4.196006 0.000000 0.000000 0.000000 22.142722 12.629110 -9.483447 -2.509605 -9.855408 28.509625 -2.618766 1.414698 -30.271065 -0.926554 -6.132151 17.168459 2.444334 -1.548453 -6.901147 0.496057 -2.311694 1.541863 -1.119531 -1.071412 5.401009 -7.541218 -7.372766 0.388596 11.872307 -10.377940 4.546061 4.516922 -5.111380 2.298769 0.000000 0.000000 0.000000 4.660006 -1.839269 -5.808268 16.836392 -26.641657 4.013750 28.767408 -156.752263 -9.883669 0.000000 0.000000 0.000000 -7.125000 0.000000 0.000000 1.576575 41.216560 0.147138 0.000000 0.000000 0.000000 -5.473472 7.810739 19.160860 -17.141936 -27.044497 -4.151690 3.023074 -1.558187 48.875662 0.000000 0.000000 0.000000 7.125000 0.000000 0.000000 64.127202 68.726270 -42.298903
